<svg xmlns="http://www.w3.org/2000/svg" viewBox="0 0 64 64">
  <defs>
    <radialGradient id="bg" cx="30%" cy="30%" r="75%">
      <stop offset="0%" stop-color="#d6f2ff"/>
      <stop offset="100%" stop-color="#5aa8ff"/>
    </radialGradient>
  </defs>
  <circle cx="32" cy="32" r="29" fill="url(#bg)"/>
  <circle cx="22" cy="24" r="3.5" fill="#243447"/>
  <circle cx="42" cy="24" r="3.5" fill="#243447"/>
  <path d="M22 39c3-4 7-6 10-6s7 2 10 6" fill="none" stroke="#243447" stroke-linecap="round" stroke-width="4"/>
  <path d="M18 31c0 6 4 8 4 12 0 2-2 4-4 4s-4-2-4-4c0-4 4-6 4-12Z" fill="#8bd6ff"/>
  <path d="M46 31c0 6 4 8 4 12 0 2-2 4-4 4s-4-2-4-4c0-4 4-6 4-12Z" fill="#8bd6ff"/>
</svg>
