<svg xmlns="http://www.w3.org/2000/svg" viewBox="0 0 64 64">
  <defs>
    <linearGradient id="bg" x1="0%" y1="0%" x2="100%" y2="100%">
      <stop offset="0%" stop-color="#b37a4a"/>
      <stop offset="100%" stop-color="#6b3d1d"/>
    </linearGradient>
  </defs>
  <path d="M26 15c0-5 3-8 8-8 2 0 4 1 5 3-3 1-5 4-5 7 7 1 14 7 14 16 0 12-9 21-22 21S4 45 4 33c0-7 5-13 11-15-1-5 2-9 7-9 2 0 3 0 4 1-1 1-1 3 0 5Z" fill="url(#bg)"/>
  <circle cx="24" cy="33" r="3.5" fill="#ffffff"/>
  <circle cx="39" cy="33" r="3.5" fill="#ffffff"/>
  <circle cx="24" cy="33" r="1.8" fill="#2d1a10"/>
  <circle cx="39" cy="33" r="1.8" fill="#2d1a10"/>
  <path d="M22 43c3 2 6 3 10 3s7-1 10-3" fill="none" stroke="#2d1a10" stroke-linecap="round" stroke-width="3"/>
</svg>
